<?xml version="1.0" standalone="no"?>
<!DOCTYPE svg PUBLIC "-//W3C//DTD SVG 20010904//EN"
 "http://www.w3.org/TR/2001/REC-SVG-20010904/DTD/svg10.dtd">
<svg version="1.0" xmlns="http://www.w3.org/2000/svg"
 width="500.000000pt" height="500.000000pt" viewBox="0 0 500.000000 500.000000"
 preserveAspectRatio="xMidYMid meet">
<metadata>
Created by potrace 1.15, written by Peter Selinger 2001-2017
</metadata>
<g transform="translate(0.000000,500.000000) scale(0.100000,-0.100000)"
fill="#000000" stroke="none">
<path d="M0 2500 l0 -2500 2500 0 2500 0 0 2500 0 2500 -2500 0 -2500 0 0
-2500z m3607 1512 c49 -61 -53 -270 -218 -447 -20 -22 -49 -54 -63 -72 l-26
-31 20 -53 c12 -29 23 -67 24 -84 2 -17 8 -40 14 -52 7 -12 12 -31 12 -42 0
-12 4 -21 9 -21 10 0 28 -96 36 -200 3 -41 15 -147 26 -235 36 -274 22 -375
-65 -473 -58 -67 -115 -181 -175 -357 -34 -98 -58 -152 -70 -160 -16 -9 39
-118 154 -305 19 -30 34 -58 35 -62 0 -10 -159 74 -226 119 l-61 42 -36 -77
c-51 -111 -89 -204 -128 -309 -38 -107 -80 -157 -163 -198 -84 -41 -279 -45
-405 -9 -23 7 -23 5 -17 -29 10 -51 -11 -58 -46 -16 -49 58 -52 90 -33 334 20
272 54 471 154 914 17 74 29 136 27 139 -7 6 -314 -57 -350 -72 -23 -10 -39
-28 -56 -62 -26 -56 -103 -253 -131 -334 -10 -30 -24 -63 -30 -74 -6 -10 -19
-44 -29 -75 -10 -31 -25 -72 -33 -91 -9 -19 -48 -123 -87 -230 -101 -277 -142
-383 -154 -398 -20 -28 -126 9 -226 79 -14 9 -52 25 -85 35 -117 34 -121 44
-79 177 52 164 116 353 130 385 9 18 24 56 34 85 10 29 35 90 55 137 20 47 43
103 51 125 9 22 20 48 24 57 5 9 24 54 43 100 l33 83 -49 132 c-27 73 -47 138
-44 146 5 14 111 56 192 76 38 10 43 16 88 104 26 51 47 97 47 101 0 4 11 31
24 59 20 44 80 191 156 377 41 101 101 233 170 374 72 144 75 149 118 167 27
12 65 19 96 18 32 -1 90 10 155 30 112 34 171 40 171 18 0 -16 -31 -103 -152
-422 -17 -44 -43 -114 -58 -155 -16 -41 -45 -118 -65 -170 -20 -52 -43 -115
-52 -140 -8 -25 -23 -63 -33 -85 -26 -59 -61 -167 -55 -173 6 -7 298 47 306
56 6 6 24 65 72 233 10 34 8 39 -18 61 -35 31 -26 48 24 48 32 0 40 4 44 23
16 69 58 190 142 417 26 69 58 156 71 195 13 38 28 73 34 79 5 5 31 0 67 -14
77 -31 85 -38 73 -60 -23 -43 0 -40 102 14 186 99 307 174 383 241 43 37 76
40 102 7z"/>
<path d="M3505 3952 c-138 -102 -241 -163 -437 -259 l-97 -48 -21 -56 -22 -57
23 -52 c38 -88 117 -122 202 -87 39 17 214 199 298 310 70 93 129 211 129 256
0 40 -14 39 -75 -7z"/>
<path d="M2890 3750 c0 -5 7 -7 15 -4 8 4 15 8 15 10 0 2 -7 4 -15 4 -8 0 -15
-4 -15 -10z"/>
<path d="M2865 3521 c-3 -5 -1 -12 5 -16 5 -3 10 1 10 9 0 18 -6 21 -15 7z"/>
<path d="M2901 3457 c-12 -42 -12 -48 7 -75 31 -43 92 -81 149 -91 55 -11 146
-1 184 19 12 7 32 10 46 7 15 -3 23 0 20 7 -2 6 -12 35 -21 63 -10 29 -22 56
-28 59 -5 3 -24 -8 -41 -26 -39 -40 -84 -60 -135 -60 -60 0 -104 35 -158 126
-9 15 -12 11 -23 -29z"/>
<path d="M2821 3228 c-23 -73 -44 -137 -45 -143 -2 -5 5 -21 15 -34 23 -29 17
-41 -24 -41 l-33 0 -43 -137 c-156 -493 -235 -790 -310 -1158 -30 -147 -71
-392 -71 -420 0 -9 15 -15 48 -18 l47 -3 -52 -2 c-37 -1 -53 -6 -53 -15 0 -11
40 -14 205 -14 l205 0 34 26 c54 41 84 111 111 261 14 74 30 150 35 169 5 20
6 39 1 44 -13 13 -19 -2 -30 -69 -43 -254 -65 -332 -106 -373 -21 -21 -35 -25
-92 -27 l-68 -2 60 7 c75 8 98 21 119 66 25 51 59 193 52 217 -2 12 2 35 11
51 l15 30 -60 -5 c-63 -6 -96 -22 -149 -72 -38 -35 -42 -70 -13 -101 l19 -21
-26 1 c-20 0 -29 -6 -34 -25 -4 -14 -7 -19 -8 -13 -1 7 -13 20 -27 30 -25 16
-27 16 -39 -1 -13 -17 -14 -17 -34 3 -12 12 -17 21 -13 21 4 0 13 -5 20 -12 8
-8 15 -8 26 1 11 9 20 10 35 1 31 -16 58 5 53 40 l-4 28 -36 -15 c-35 -15
-103 -14 -143 2 -24 9 -33 -35 -11 -51 9 -8 23 -11 30 -9 8 3 6 -5 -5 -19
l-18 -24 -6 21 c-4 16 -13 22 -32 22 -26 -1 -26 -1 -7 20 15 16 18 33 17 82
-2 69 3 79 31 64 12 -6 52 -10 90 -8 59 3 75 8 103 31 19 16 39 37 45 48 14
25 6 75 -13 82 -16 7 -129 -57 -136 -77 -3 -9 -8 -8 -18 4 -8 8 -27 23 -42 33
-16 10 -27 20 -24 22 8 8 57 -8 52 -16 -3 -5 0 -12 5 -15 15 -9 62 3 55 15 -3
5 5 12 17 16 22 8 22 8 -7 16 -27 6 -26 7 8 3 20 -2 37 0 37 6 0 5 7 9 15 9
44 0 95 51 95 96 0 12 -4 12 -20 4 -11 -6 -20 -8 -20 -5 0 3 -6 1 -12 -5 -96
-79 -167 -117 -205 -107 -10 3 -5 5 12 6 l29 1 -22 16 c-12 8 -22 20 -22 26 0
6 8 4 18 -5 34 -31 41 -21 26 36 -7 28 -13 61 -13 72 l0 20 9 -20 c5 -11 9
-32 9 -47 2 -48 16 -31 35 39 10 37 31 92 47 123 16 30 29 67 29 82 0 26 -1
26 -44 -20 -24 -26 -46 -54 -49 -62 -4 -10 -6 -7 -6 8 -1 14 14 35 39 58 22
20 51 60 66 90 l26 54 -31 47 c-17 25 -31 51 -31 56 0 15 29 -13 35 -34 4 -10
11 -19 17 -19 6 0 7 7 3 18 -4 9 -9 59 -11 111 l-3 93 47 -6 c26 -4 60 -9 76
-12 19 -4 26 -3 22 5 -4 6 -13 11 -20 11 -39 0 -60 74 -30 104 21 21 23 21 57
-11 56 -55 148 -28 253 74 113 110 176 220 199 350 l14 78 -4 -66 c-5 -87 -33
-163 -90 -249 -50 -75 -168 -186 -228 -213 -53 -24 -119 -22 -142 3 -10 11
-27 20 -37 20 -16 0 -19 -6 -16 -32 4 -45 51 -68 139 -68 126 0 268 60 359
151 70 70 83 113 78 251 -3 99 -7 121 -33 177 -23 51 -30 60 -36 45 -7 -17 -8
-17 -8 3 -2 46 -50 82 -143 106 -49 14 -101 35 -121 50 l-34 26 -5 -117 c-4
-101 -9 -128 -37 -195 -17 -43 -44 -97 -60 -120 -27 -39 -124 -137 -136 -137
-16 0 0 27 44 73 95 101 157 233 176 373 8 59 -1 135 -19 159 -10 14 -19 -5
-55 -117z m-10 -1686 c-6 -12 -11 -33 -11 -49 0 -23 -2 -25 -11 -13 -8 11 -9
8 -5 -15 5 -22 4 -26 -4 -15 -6 10 -10 11 -10 3 0 -20 -38 -53 -60 -53 -10 0
-30 -11 -44 -25 -17 -17 -20 -25 -11 -25 8 0 20 9 27 20 7 11 23 20 35 20 13
0 32 9 43 20 11 11 20 16 20 12 0 -14 -32 -39 -60 -47 -14 -4 -31 -13 -39 -19
-8 -6 -35 -12 -60 -12 -32 -1 -40 1 -26 7 14 5 16 8 5 9 -8 2 -19 1 -25 0 -27
-8 -131 -8 -145 0 -9 5 -22 5 -29 0 -11 -6 -10 -9 5 -12 10 -2 -3 -4 -31 -4
-27 0 -41 2 -31 4 15 3 16 6 5 14 -11 8 -9 8 5 4 10 -4 29 1 42 9 13 9 24 11
24 5 0 -14 67 -12 74 3 5 10 7 10 12 0 7 -15 74 -17 74 -3 0 6 11 3 24 -5 33
-22 70 -4 64 30 -4 20 -2 22 16 15 29 -10 64 5 75 32 28 70 52 120 57 115 3
-3 1 -14 -5 -25z m-243 -208 c2 -1 -29 -2 -70 -1 -53 0 -63 2 -38 7 31 6 99 2
108 -6z m-3 -43 c17 -4 -11 -6 -65 -6 -54 0 -82 2 -65 6 17 4 46 7 65 7 19 0
49 -3 65 -7z"/>
<path d="M2790 3310 c0 -5 5 -10 10 -10 6 0 10 5 10 10 0 6 -4 10 -10 10 -5 0
-10 -4 -10 -10z"/>
<path d="M3220 3285 c-30 -7 -86 -14 -124 -14 -38 -1 -67 -4 -64 -7 3 -3 32
-12 65 -21 32 -8 64 -19 70 -25 10 -8 24 -1 53 26 22 20 49 36 61 36 11 0 17
5 14 10 -3 6 -9 9 -13 9 -4 -1 -32 -7 -62 -14z"/>
<path d="M3244 3237 l-36 -33 36 -69 c20 -39 42 -99 48 -133 10 -55 13 -60 21
-40 5 12 11 83 14 157 5 107 3 135 -8 142 -24 15 -38 10 -75 -24z"/>
<path d="M2760 3199 c0 -5 5 -7 10 -4 6 3 10 8 10 11 0 2 -4 4 -10 4 -5 0 -10
-5 -10 -11z"/>
<path d="M3347 3140 c-3 -8 -8 -55 -12 -105 -3 -49 -10 -108 -15 -130 -28
-118 0 -240 59 -265 17 -7 33 -11 35 -9 2 2 -4 72 -14 154 -10 83 -21 188 -25
233 -8 96 -20 145 -28 122z"/>
<path d="M2625 3020 c-8 -26 -6 -28 32 -36 26 -5 32 -2 38 16 8 26 8 26 -32
34 -26 6 -32 4 -38 -14z"/>
<path d="M2630 2953 c-4 -65 -29 -145 -50 -158 -6 -3 -10 -26 -10 -50 0 -24
-9 -67 -20 -95 -11 -28 -27 -90 -35 -137 -8 -48 -21 -96 -28 -107 -24 -37 -46
-103 -52 -153 -13 -114 -18 -140 -37 -202 -11 -35 -21 -86 -23 -111 -2 -26
-10 -61 -19 -78 -19 -37 -28 -113 -15 -133 7 -11 9 -10 9 4 0 36 102 462 156
652 39 139 66 227 125 418 36 117 41 140 28 148 -17 11 -29 11 -29 2z"/>
<path d="M3267 2703 c-17 -34 -17 -37 2 -97 10 -33 22 -73 25 -89 5 -22 10
-26 29 -21 33 8 49 -17 50 -77 1 -45 2 -49 14 -33 21 29 33 84 33 155 0 63 -1
67 -27 78 -41 18 -68 43 -89 83 l-19 36 -18 -35z"/>
<path d="M3208 2616 c-10 -7 -18 -25 -18 -40 0 -72 -112 -208 -213 -259 -59
-30 -143 -43 -212 -33 -38 6 -56 17 -93 53 l-45 46 6 -48 c10 -70 27 -119 52
-150 20 -26 24 -27 53 -17 45 16 103 -4 187 -63 118 -82 165 -93 207 -47 48
51 77 107 113 216 45 134 49 212 16 299 -24 61 -27 63 -53 43z"/>
<path d="M3132 2571 c-31 -29 -43 -49 -21 -35 26 16 -24 -56 -65 -94 -65 -60
-68 -52 -4 9 32 31 36 37 11 16 -23 -19 -51 -40 -62 -47 -12 -6 -19 -15 -16
-19 3 -5 -2 -12 -11 -15 -10 -4 -13 -2 -8 6 5 8 1 9 -12 4 -77 -31 -137 -30
-211 0 -7 3 -13 1 -13 -4 0 -29 106 -38 200 -17 14 3 10 -1 -10 -9 -42 -17
-116 -20 -158 -5 -31 11 -63 47 -61 71 0 7 5 2 10 -11 14 -36 21 -19 7 20 -13
39 -24 49 -55 49 -19 0 -23 -5 -23 -32 0 -53 39 -109 93 -137 107 -55 252 -17
362 93 53 53 95 127 95 167 0 26 -10 24 -48 -10z"/>
<path d="M3316 2467 c-12 -9 -21 -42 -31 -117 -8 -58 -19 -117 -24 -132 -15
-41 -4 -34 20 15 12 23 35 58 50 78 24 30 29 46 29 92 0 62 -16 85 -44 64z"/>
<path d="M2637 2210 c-3 -8 -10 -30 -16 -49 -13 -40 -15 -250 -2 -269 7 -11
16 -9 48 11 48 31 73 67 73 107 0 16 5 30 10 30 20 0 10 -59 -16 -90 -31 -37
-26 -47 15 -30 36 15 71 80 71 133 0 45 -31 77 -75 77 -62 0 -92 -78 -37 -98
24 -9 24 -11 5 -11 -50 -2 -70 62 -32 100 18 18 19 22 6 32 -8 7 -22 26 -30
42 -11 21 -17 26 -20 15z"/>
<path d="M3225 2181 c-11 -52 -73 -134 -136 -179 -32 -24 -59 -51 -59 -60 0
-13 -2 -14 -9 -4 -7 12 -14 11 -39 -2 -17 -9 -39 -16 -49 -16 -10 0 -42 -14
-71 -31 -60 -34 -61 -25 16 -114 83 -94 310 -270 328 -253 2 3 -16 41 -42 84
-55 92 -118 234 -128 284 -4 23 3 12 19 -29 14 -36 27 -66 29 -68 8 -8 55 86
71 142 9 33 25 76 36 97 20 39 53 167 45 175 -2 2 -7 -9 -11 -26z"/>
<path d="M2777 2146 c40 -18 67 -59 60 -88 -6 -26 4 -43 47 -76 37 -29 95 -29
153 0 l45 22 -58 28 c-31 15 -64 34 -73 41 -42 35 -125 77 -163 82 l-43 6 32
-15z"/>
<path d="M2569 1990 c-27 -58 -63 -189 -55 -197 3 -3 24 10 48 28 24 19 44 34
45 34 1 0 -2 43 -6 95 l-7 95 -25 -55z"/>
<path d="M2828 1943 c-2 -24 0 -43 4 -43 14 0 78 34 78 41 0 4 -18 16 -39 26
l-39 20 -4 -44z"/>
<path d="M2797 1946 c-10 -15 -32 -33 -49 -40 -21 -9 -35 -25 -43 -49 l-12
-36 46 24 c50 25 86 76 80 110 -4 17 -6 16 -22 -9z"/>
<path d="M2674 1894 c-18 -14 -18 -14 6 -3 31 14 36 19 24 19 -6 0 -19 -7 -30
-16z"/>
<path d="M2743 1829 c-24 -12 -43 -25 -43 -30 0 -5 -9 -9 -19 -9 -11 0 -23 -4
-26 -10 -3 -5 -1 -10 4 -10 6 0 11 -13 11 -30 0 -16 4 -30 9 -30 10 0 90 82
104 106 16 29 1 34 -40 13z"/>
<path d="M2885 1598 c-28 -187 -65 -287 -130 -348 -28 -26 -70 -30 -230 -20
-33 2 -97 0 -143 -5 -93 -9 -86 -1 -97 -116 l-6 -67 47 -16 c64 -22 283 -22
345 -1 89 32 127 78 175 215 12 36 39 103 59 150 29 67 66 154 98 230 2 6 -87
90 -95 90 -3 0 -13 -51 -23 -112z"/>
<path d="M2313 1623 c-14 -33 -31 -186 -18 -158 8 16 43 195 38 195 -2 0 -11
-17 -20 -37z"/>
<path d="M2276 1388 c-4 -24 -9 -53 -13 -65 -3 -13 -1 -23 4 -23 6 0 13 28 17
62 7 71 2 89 -8 26z"/>
<path d="M2236 1069 c-4 -32 -3 -56 3 -62 8 -8 11 8 11 51 0 34 -2 62 -4 62
-2 0 -6 -23 -10 -51z"/>
</g>
</svg>
